PathFileType	4	(X/Y/Z)	14_2_6_p0_0-352_filt_butterworth.trc
DataRate	CameraRate	NumFrames	NumMarkers	Units	OrigDataRate	OrigDataStartFrame	OrigNumFrames
60.0	60.0	6	27	m	60.0	0	352
Frame#	Time	RHip			RKnee			RAnkle			RBigToe			RSmallToe			RHeel			LHip			LKnee			LAnkle			LBigToe			LSmallToe			LHeel			Neck			Head			Nose			RShoulder			RElbow			RWrist			RThumb			RIndex			RPinky			LShoulder			LElbow			LWrist			LThumb			LIndex			LPinky			
		X1	Y1	Z1	X2	Y2	Z2	X3	Y3	Z3	X4	Y4	Z4	X5	Y5	Z5	X6	Y6	Z6	X7	Y7	Z7	X8	Y8	Z8	X9	Y9	Z9	X10	Y10	Z10	X11	Y11	Z11	X12	Y12	Z12	X13	Y13	Z13	X14	Y14	Z14	X15	Y15	Z15	X16	Y16	Z16	X17	Y17	Z17	X18	Y18	Z18	X19	Y19	Z19	X20	Y20	Z20	X21	Y21	Z21	X22	Y22	Z22	X23	Y23	Z23	X24	Y24	Z24	X25	Y25	Z25	X26	Y26	Z26	X27	Y27	Z27	
0	0.0	0.32088627144440524	0.6522493261642951	0.29684001825827266	0.3309264041898511	0.7736753132045614	0.7051173388596321	0.3196374291127402	0.9089075732012717	1.111527729682287	0.2669689157948981	0.7195069180057116	1.1706081548293161	0.33580841837350095	0.734956968022829	1.165405165123534	0.2911994230323734	1.0074090273435055	1.1536950392091936	0.11407653946846864	0.6423915578368582	0.317458167546242	0.11829739455574856	0.77416557109528	0.6910577861462489	0.1049284876470479	0.8932436623916536	1.0909327564140254	0.1082810414003827	0.6986189626309758	1.1529757302401071	0.05443222200829617	0.7591073891244442	1.1625061178878717	0.11865275383599183	0.9689340678302147	1.151418480062241	0.2067814658734051	0.5196360692157014	-0.2174597979684791	0.21275945298307228	0.4292948897167944	-0.4456673148059861	0.20863031358911083	0.40360779460711604	-0.3196248354506124	0.35724026812894255	0.5346328805955405	-0.12241766804997983	0.37880159445546824	0.5621600430996394	0.15266735872633053	0.29680900766532453	0.47074447331494057	0.32482671162475935	0.2100026631789974	0.47571606353046	0.4002015884786711	0.199120375226292	0.4939230506743444	0.42685028988062407	0.226492210948269	0.46456427260360345	0.4294180805377004	0.04888331702910104	0.5549948726303869	-0.13547064483952445	0.034386147606795564	0.5443639346603356	0.14881959965279018	0.17461913073786317	0.4730338698867743	0.3273871520138092	0.2527345201319505	0.4377651870840771	0.3740225743169457	0.2597490572514059	0.4644327160112267	0.42119263774239285	0.22652580768579994	0.5347401284378701	0.44123657756791956
1	0.0166666666666666	0.32107058270151234	0.6521981208670736	0.2959209191063883	0.33111594896065866	0.7733749430795014	0.7049471869814882	0.3196434025316148	0.9088643103389933	1.1114814641114532	0.26705829677614373	0.7199799411284394	1.170832768325899	0.33424537582675035	0.7303628201161302	1.163777391869146	0.2913656516083205	1.009675313355018	1.160190835369216	0.10966226817225169	0.6596767843422883	0.31786106176783885	0.1185437745286525	0.7758911013438362	0.6902990990476365	0.1054876511475246	0.8929624237141376	1.0855591639799997	0.1072653855978842	0.713869067263109	1.1581722573054616	0.05566485238051736	0.7649370724568634	1.1644458446043726	0.11985826563314161	0.9694463738711911	1.1516069345689703	0.20482243380821455	0.5280608550455982	-0.21816301306215352	0.21273583717019162	0.4293622638157456	-0.44373590402282476	0.20877877292198752	0.4039183887064313	-0.31737963586427087	0.35723398814716756	0.534615065642316	-0.12252602568419464	0.37857061062255626	0.5611965622496621	0.1489153542384433	0.2961224564483217	0.47115098359145824	0.32754792609417477	0.20853675844814618	0.4764835310318169	0.40393911580103387	0.19878212131537784	0.4908729334358207	0.4257611672846954	0.22492600453349393	0.47492166354453946	0.4310172266836517	0.04682493383602719	0.5476574657357872	-0.13507880471133724	0.034272094908312165	0.5441960930652132	0.14878031370250222	0.17465992362692928	0.47315226764535867	0.3273611494350568	0.25261315827661246	0.4371548331237966	0.373045259376693	0.2576621048270665	0.4536930974836835	0.41904301581431264	0.22900484127834458	0.5412302047973659	0.44203625304137845
2	0.0333333333333333	0.32114380832979444	0.6522445603984823	0.29577318483984405	0.3308472314608832	0.7749425012013542	0.7048619156038528	0.3196690466642614	0.9087833416379612	1.1114180860096834	0.26700155802998476	0.72002228957728	1.1708555337274418	0.3331573499424313	0.7271627231812212	1.162593340916093	0.2914369697090985	1.0107543594633748	1.1635600271601088	0.10718012321629819	0.6671261786387617	0.31803263713377045	0.118695333845639	0.7802353317052989	0.6910390413604561	0.10582228975973379	0.8928824817178784	1.0822968299012203	0.10708511829271453	0.7250051681752232	1.1620166453457719	0.056806875185421664	0.7704702064815775	1.1663199256092065	0.1204844199851137	0.9695472825337011	1.1517084728593705	0.20363751863300616	0.533123760212991	-0.218569588321217	0.21273774575523127	0.42941484457807255	-0.4425728941955305	0.20887093532646311	0.40410147968386434	-0.3159671322146273	0.357216724946178	0.5345851595441766	-0.12258713641502711	0.3784467514205166	0.5605240481982332	0.14645208278972502	0.2957585105483437	0.4717581778884146	0.33021877115760817	0.20824515123025425	0.4773480626475065	0.40677269297464835	0.1984499572950973	0.4907716322557921	0.4255353613345645	0.22458152933993022	0.48313976043349904	0.43227956837733805	0.045578130279258	0.54320779319424	-0.1348387060034953	0.0341032074812787	0.5437081405476686	0.14825288131350003	0.1747045026911443	0.4731844513612396	0.327342680246431	0.252499621202438	0.43653585736608846	0.3726609284585188	0.25653565595657823	0.4477862747660163	0.41801260048058414	0.23086490724842124	0.5454444066142434	0.4424962521134683
3	0.05	0.32112866470089924	0.6523416531036629	0.2961447940373011	0.3298939857385237	0.7792171759023647	0.7047958257406525	0.31972276309158654	0.9086128874446348	1.1113213560073871	0.26648152610143483	0.7186545242154709	1.1703181783009482	0.3324496607718666	0.7249245642678898	1.1616960187148662	0.29140905010938134	1.0106087758121374	1.1635509704244542	0.10642079154053732	0.6636293756105424	0.31772609073337144	0.11887287911735533	0.7865639145222711	0.6928889022973033	0.10592455192798202	0.8928933537335051	1.081280936142643	0.10750210836978848	0.7303851220402653	1.1639290874937611	0.0575567761121274	0.7742642072005537	1.1676263563612679	0.12044381001396251	0.9692887522308876	1.1516373964329722	0.203273605696754	0.5346137705301954	-0.21866417836350865	0.21276931094002363	0.42945681992241036	-0.4422394959869562	0.20886135060978164	0.40406857307377164	-0.31555262665344197	0.3571900387784974	0.5345484837256432	-0.12259762643198602	0.3784604113779341	0.560159285054903	0.14524953978331742	0.2957221358626611	0.47235348632851654	0.33212486127157015	0.20941290550666955	0.47903977282689647	0.408538796132209	0.1991357527088947	0.4926224344137867	0.4261373145310984	0.22539377229247493	0.4884328718953915	0.43306858621542144	0.04520964588832884	0.5418933799743788	-0.1347617134803896	0.03392383285694329	0.5429834586530651	0.14716164224310682	0.17475073128654395	0.4731429951437939	0.3273387232089553	0.2525335756348298	0.4363236653012917	0.37302094349462855	0.25663138289611415	0.44750862863067375	0.41836159623770064	0.23205852077423791	0.547869649030483	0.4426556444724872
4	0.0666666666666666	0.3210896722697563	0.6524203997292392	0.2965248889733438	0.32857524864911286	0.7846468251433273	0.7046677074362685	0.3197261388040175	0.908416705956873	1.1112251774537272	0.2652695598636615	0.7151029707348816	1.1689886443465072	0.33198329973715335	0.7232638001765413	1.1610022512755145	0.2913329410112617	1.0098276966233652	1.1615205422505972	0.1060455133702542	0.6549645440236895	0.3171152254660554	0.11915540258511627	0.7917903431861715	0.6944779861122797	0.10592160063351741	0.8927828746205503	1.0813341186773044	0.10786075679951371	0.7315619636715399	1.164400577590479	0.057798725392531974	0.7756418322138672	1.168105585413429	0.12030819050362741	0.9698254448168615	1.151474505178272	0.20328488637412173	0.5344894283111146	-0.21863112706585103	0.2128122092177078	0.42950193539303577	-0.4423133486536629	0.20875408892663153	0.40381980598151734	-0.3159523683654043	0.3571662302877685	0.5345325511361014	-0.12258037924683227	0.37854005961291787	0.5599991211363504	0.14475243240562644	0.2958049455465751	0.47262960571462276	0.3328465040466787	0.2114557059890074	0.4823706747795923	0.4095175746679734	0.2014796582402083	0.49402376759638844	0.4268191927327735	0.22648243765968074	0.4912380080053701	0.4334564260447984	0.045276252356816246	0.5421410225171439	-0.13476827395551996	0.033863715875390346	0.5424290212722253	0.146172731478894	0.17479211149969698	0.47310979940695264	0.3273540457727496	0.25300857667688986	0.4374580408939474	0.37356168643530585	0.2577913341209651	0.44972212138965595	0.41926453036445555	0.23286781128313966	0.5505070997655382	0.4428159308499577
5	0.0833333333333333	0.32103120218915193	0.6525122170362103	0.29699883851354436	0.32758367740039773	0.788381754455825	0.7045274205376384	0.31944856977263225	0.908617364630652	1.1112922462358166	0.2638033335026797	0.7103513270272891	1.1672648186859533	0.33173025247666166	0.722361302587851	1.1606570583745857	0.2912616510989297	1.0089170041346904	1.1586302216515973	0.10552744459689271	0.6470534958347648	0.3166275915714379	0.11931911768186795	0.7940874574652688	0.6951728079725399	0.10588486650762012	0.8925895156682659	1.0816355028140945	0.10792922459401644	0.7312038559110444	1.1643248476766868	0.0577664725806766	0.7756035982881875	1.1680813584655132	0.12055617026908116	0.9723784071945833	1.1513487376130318	0.2033310976211332	0.5342647220584501	-0.21861648063617972	0.21284564670630896	0.4295503754954304	-0.4424423487961284	0.2086908895744736	0.4036887756987377	-0.31704462157386354	0.3571542926125008	0.5345534888484343	-0.1225556939676455	0.37860443619216155	0.5599754080509395	0.14464491854104516	0.29581550056677636	0.47247247610272874	0.33276086161615254	0.2134787206597724	0.486660335805267	0.4099796682223063	0.2045505601213139	0.4942930288527924	0.4270729436921605	0.22747195262018394	0.4931661772396013	0.4337048082129581	0.04540461754136599	0.5426136797266038	-0.13479161588028896	0.03401445367475196	0.5423635129137185	0.14617285699933824	0.1748248010724615	0.473139729014873	0.32738707065339256	0.2541079585147129	0.44056109014803224	0.37372050795207573	0.25965054905552726	0.4514133265497657	0.419857455472194	0.23362345208760193	0.5539086464037474	0.4431946358228791
